<svg width="185" height="46" viewBox="0 0 185 46" fill="none" xmlns="http://www.w3.org/2000/svg">
<g clip-path="url(#clip0_129_1407)">
<path d="M155.277 39.5566H126.609V44.651H155.277V39.5566Z" fill="#FB5500"/>
<path d="M97.9414 39.5566H126.609V44.651H102.964C100.19 44.651 97.9414 42.3702 97.9414 39.5566Z" fill="#1034A6"/>
<path d="M155.277 39.5566H178.923C181.696 39.5566 183.946 41.8375 183.946 44.651H155.277V39.5566Z" fill="#54BE44"/>
<path d="M164.04 20.0175L166.796 10.7168H173.21L165.132 35.583H158.861L155.773 25.3667C154.601 21.1902 153.904 18.7164 153.682 17.9453C153.587 18.2988 152.906 20.7725 151.639 25.3667L148.598 35.583H142.326L134.25 10.7168H140.664L143.42 20.0175C144.116 22.2343 144.924 25.1097 145.842 28.6436C146.73 25.0776 147.506 22.1861 148.171 19.9694L150.879 10.7168H156.581L159.289 19.9694C159.953 22.1861 160.729 25.0776 161.617 28.6436C162.44 25.463 163.248 22.5877 164.04 20.0175Z" fill="#292929"/>
<path d="M134.027 23.1491C134.027 27.0686 132.887 30.217 130.607 32.5944C128.326 34.9718 125.317 36.1605 121.579 36.1605C117.842 36.1605 114.832 34.9718 112.552 32.5944C110.24 30.2491 109.084 27.1007 109.084 23.1491C109.084 19.1975 110.24 16.049 112.552 13.7037C114.832 11.3264 117.842 10.1377 121.579 10.1377C125.317 10.1377 128.326 11.3103 130.607 13.6556C132.887 16.0009 134.027 19.1654 134.027 23.1491ZM116.876 29.0765C118.016 30.458 119.584 31.1487 121.579 31.1487C123.575 31.1487 125.127 30.458 126.235 29.0765C127.376 27.6629 127.946 25.6871 127.946 23.1491C127.946 20.6111 127.376 18.6513 126.235 17.2699C125.127 15.8563 123.575 15.1495 121.579 15.1495C119.584 15.1495 118.016 15.8402 116.876 17.2216C115.767 18.6031 115.212 20.5789 115.212 23.1491C115.212 25.7192 115.767 27.6951 116.876 29.0765Z" fill="#292929"/>
<path d="M99.4955 30.8604H107.81V35.583H87V31.5832L96.6928 19.1983C97.1357 18.6522 97.6907 17.9615 98.3553 17.1262C99.0526 16.2909 99.5273 15.7126 99.7809 15.3913C99.0208 15.4234 97.3416 15.4394 94.7449 15.4394H87.2377V10.7168H107.24V14.7166L97.5475 27.1016C97.1047 27.6477 96.5346 28.3385 95.8373 29.1738C95.1718 30.0091 94.7131 30.5874 94.4594 30.9086C95.2195 30.8765 96.8988 30.8604 99.4955 30.8604Z" fill="#292929"/>
<path d="M74.7213 10.1387C78.0788 10.1387 80.7553 11.3113 82.7508 13.6566C84.7146 16.0339 85.6965 19.1984 85.6965 23.15C85.6965 27.0695 84.7146 30.218 82.7508 32.5954C80.7553 34.9728 78.0788 36.1615 74.7213 36.1615C71.3955 36.1615 68.8615 34.8925 67.1194 32.3544V45.0285H61.1328V10.717H66.8818V14.283C68.6555 11.5201 71.2687 10.1387 74.7213 10.1387ZM68.6873 29.0775C69.7642 30.459 71.3004 31.1497 73.2959 31.1497C75.2598 31.1497 76.8118 30.4268 77.9521 28.9811C79.0607 27.5675 79.615 25.5596 79.615 22.9573C79.615 20.4193 79.0607 18.4916 77.9521 17.1745C76.8751 15.8251 75.3231 15.1505 73.2959 15.1505C71.3004 15.1505 69.7484 15.8412 68.6397 17.2226C67.5311 18.6041 66.9768 20.5799 66.9768 23.15C66.9768 25.7523 67.547 27.7282 68.6873 29.0775Z" fill="#292929"/>
<path d="M57.5673 35.5832H51.5808C51.2957 35.0692 51.074 34.0572 50.9156 32.5472C49.2685 34.9567 46.6396 36.1615 43.0286 36.1615C40.3363 36.1615 38.1824 35.5029 36.5669 34.1857C34.9832 32.8684 34.1914 31.0373 34.1914 28.6919C34.1914 24.162 37.3272 21.5758 43.5988 20.9333L47.3047 20.596C48.54 20.4354 49.4269 20.1462 49.9654 19.7285C50.5038 19.2788 50.7731 18.6202 50.7731 17.7528C50.7731 16.6925 50.4247 15.9215 49.7278 15.4396C49.0626 14.9256 47.9223 14.6686 46.307 14.6686C44.5648 14.6686 43.3137 14.9737 42.5535 15.5842C41.7933 16.1625 41.3498 17.1745 41.2232 18.6202H35.3316C35.6801 12.9658 39.3543 10.1387 46.3544 10.1387C53.1645 10.1387 56.5695 12.6284 56.5695 17.6082V30.8605C56.5695 33.0452 56.9021 34.6194 57.5673 35.5832ZM44.454 31.8243C46.3228 31.8243 47.8432 31.3103 49.0151 30.2822C50.1871 29.2221 50.7731 27.7121 50.7731 25.7523V23.4874C50.2029 24.0014 49.2685 24.3387 47.9699 24.4994L44.7391 24.8849C43.1553 25.0777 42.015 25.4632 41.3182 26.0415C40.653 26.5876 40.3204 27.3908 40.3204 28.451C40.3204 29.5112 40.6688 30.3465 41.3657 30.9569C42.0942 31.5352 43.1236 31.8243 44.454 31.8243Z" fill="#292929"/>
<path d="M16.3917 36.3537C11.5138 36.3537 7.57025 34.7312 4.56115 31.4865C1.52038 28.2417 0 23.8885 0 18.4268C0 12.9332 1.50454 8.56386 4.51364 5.31904C7.49106 2.10635 11.4504 0.5 16.3917 0.5C20.351 0.5 23.7244 1.57626 26.5118 3.72876C29.2991 5.88126 31.0412 8.99761 31.738 13.0777H25.2289C24.6587 10.8289 23.5976 9.12608 22.0456 7.96952C20.5252 6.78082 18.6405 6.18647 16.3917 6.18647C13.3825 6.18647 11.0069 7.27879 9.26482 9.46341C7.55441 11.6159 6.69919 14.6038 6.69919 18.4268C6.69919 22.282 7.55441 25.2859 9.26482 27.4384C10.9753 29.591 13.3509 30.6672 16.3917 30.6672C18.7356 30.6672 20.747 29.9604 22.4257 28.5468C24.1044 27.1332 25.1181 25.1735 25.4665 22.6676H31.8806C31.4688 27.0368 29.79 30.4102 26.8443 32.7876C23.9302 35.165 20.446 36.3537 16.3917 36.3537Z" fill="#292929"/>
<path fill-rule="evenodd" clip-rule="evenodd" d="M180.552 10.7459C178.918 10.7459 177.593 12.0892 177.593 13.7463C177.593 15.4034 178.918 16.7467 180.552 16.7467C182.186 16.7467 183.51 15.4034 183.51 13.7463C183.51 12.0892 182.186 10.7459 180.552 10.7459ZM176.84 13.7463C176.84 11.6671 178.502 9.98145 180.552 9.98145C182.602 9.98145 184.263 11.6671 184.263 13.7463C184.263 15.8256 182.602 17.5112 180.552 17.5112C178.502 17.5112 176.84 15.8256 176.84 13.7463Z" fill="#292929"/>
<path d="M180.347 13.5199C180.566 13.5199 180.725 13.4766 180.821 13.394C180.917 13.3154 180.969 13.1817 180.969 12.9929C180.969 12.8081 180.917 12.6784 180.821 12.5957C180.725 12.5171 180.566 12.4778 180.347 12.4778H179.9V13.5199H180.347ZM179.9 14.2396V15.7733H178.84V11.7188H180.458C181 11.7188 181.396 11.8093 181.647 11.9901C181.901 12.1671 182.025 12.4502 182.025 12.8396C182.025 13.107 181.961 13.3272 181.83 13.5002C181.699 13.6694 181.503 13.7991 181.236 13.8777C181.383 13.9131 181.511 13.9879 181.627 14.102C181.742 14.216 181.858 14.389 181.973 14.625L182.552 15.7733H181.423L180.921 14.7665C180.821 14.566 180.717 14.4244 180.614 14.3536C180.51 14.2789 180.371 14.2396 180.199 14.2396H179.9Z" fill="#292929"/>
</g>
<defs>
<clipPath id="clip0_129_1407">
<rect width="185" height="45" fill="white" transform="translate(0 0.5)"/>
</clipPath>
</defs>
</svg>
